<svg xmlns="http://www.w3.org/2000/svg" viewBox="0 0 14.92 12.26"><defs><style>.cls-1{fill:#fff;fill-rule:evenodd;}</style></defs><title>Asset 19</title><g id="Layer_2" data-name="Layer 2"><g id="Layer_1-2" data-name="Layer 1"><path class="cls-1" d="M3.47,9.57c-.32-.22-.64-.42-.93-.66a3.21,3.21,0,0,1-.9-1.31A.55.55,0,0,1,1.72,7,3.37,3.37,0,0,1,.91,5.94,3.13,3.13,0,0,1,.57,4.6.51.51,0,0,1,1,4C.88,3.79.78,3.59.72,3.38A3.25,3.25,0,0,1,1,.83.47.47,0,0,1,1.85.74,7.91,7.91,0,0,0,4.69,2.86a8.23,8.23,0,0,0,2.06.59h.11A6.9,6.9,0,0,1,7,2.67,3.26,3.26,0,0,1,9.52.1a3.21,3.21,0,0,1,3,.79A.77.77,0,0,0,13,1a2,2,0,0,0,1.12-.3.78.78,0,0,1,.33-.09.44.44,0,0,1,.42.49,2.65,2.65,0,0,1-.52,1.51c-.2.28-.44.53-.66.8a.36.36,0,0,0-.09.21A8.56,8.56,0,0,1,10.89,10a8.24,8.24,0,0,1-4.55,2.18A8.74,8.74,0,0,1,.27,10.93a.46.46,0,0,1-.18-.69A.44.44,0,0,1,.54,10a5.45,5.45,0,0,0,2.2-.2C3,9.76,3.24,9.66,3.47,9.57ZM13.73,1.92h-.11c-.29,0-.58,0-.87,0a1.14,1.14,0,0,1-.78-.3,2.47,2.47,0,0,0-3.81.47,2.27,2.27,0,0,0-.28,1.74.46.46,0,0,1-.49.59l-.29,0A8.73,8.73,0,0,1,1.7,2l-.09-.08a2,2,0,0,0-.05.91,2.31,2.31,0,0,0,1,1.59A.47.47,0,0,1,2.79,5a.48.48,0,0,1-.54.32c-.21,0-.41,0-.66-.08A6.38,6.38,0,0,0,2,5.93a2.28,2.28,0,0,0,1.36.88.52.52,0,0,1,.41.3.46.46,0,0,1-.31.64,6,6,0,0,1-.61.11.08.08,0,0,1,0,0L3,8a2.52,2.52,0,0,0,1.77.84A.47.47,0,0,1,5,9.74a6.09,6.09,0,0,1-2.14,1l-.43.12.13,0a7.92,7.92,0,0,0,3.28.31,7.43,7.43,0,0,0,4.31-1.89,7.53,7.53,0,0,0,2.54-6,.54.54,0,0,1,.23-.49A2.85,2.85,0,0,0,13.73,1.92Z"/></g></g></svg>