<svg xmlns="http://www.w3.org/2000/svg" viewBox="0 0 11.8 9.44"><defs><style>.cls-1{fill:#fff;fill-rule:evenodd;}</style></defs><title>Asset 23</title><g id="Layer_2" data-name="Layer 2"><g id="Layer_1-2" data-name="Layer 1"><path class="cls-1" d="M0,8.41V1.06A.17.17,0,0,0,0,1,1.17,1.17,0,0,1,1.2,0h9.4a1.18,1.18,0,0,1,1.2,1.21v7a1.27,1.27,0,0,1-.06.39,1.16,1.16,0,0,1-1.16.81H1.13a1.18,1.18,0,0,1-1-.7A1.8,1.8,0,0,1,0,8.41ZM10.62,1.19l-.11.06L6,4.06a.21.21,0,0,1-.25,0L1.3,1.26l-.12-.07V2.25a.15.15,0,0,0,.09.17L5.81,5.26a.15.15,0,0,0,.19,0L8.44,3.73l2.09-1.31a.2.2,0,0,0,.09-.13C10.63,1.93,10.62,1.57,10.62,1.19Z"></path></g></g></svg>