<svg xmlns="http://www.w3.org/2000/svg" viewBox="0 0 15.08 15.08"><defs><style>.cls-1{fill:#fff;fill-rule:evenodd;}</style></defs><title>Asset 20</title><g id="Layer_2" data-name="Layer 2"><g id="Layer_1-2" data-name="Layer 1"><path class="cls-1" d="M0,10.72V4.36l0-.14a4.69,4.69,0,0,1,3.31-4c.33-.1.68-.14,1-.21h6.36l.11,0a4.67,4.67,0,0,1,4.06,3.4c.09.3.13.62.19.93v6.36a.5.5,0,0,0,0,.13,4.7,4.7,0,0,1-3.4,4c-.3.09-.62.13-.93.19H4.36l-.1,0A4.68,4.68,0,0,1,.18,11.62,9,9,0,0,1,0,10.72ZM13.66,7.54V4.77a3.64,3.64,0,0,0,0-.57,3.3,3.3,0,0,0-3.3-2.79H4.74a3.26,3.26,0,0,0-.54,0,3.31,3.31,0,0,0-2.79,3.3c0,1.86,0,3.72,0,5.58a2.55,2.55,0,0,0,0,.55,3.28,3.28,0,0,0,3.31,2.78h5.54a3.64,3.64,0,0,0,.57,0,3.29,3.29,0,0,0,2.78-3.31Z"/><path class="cls-1" d="M11.31,7.54A3.77,3.77,0,1,1,7.55,3.77,3.78,3.78,0,0,1,11.31,7.54Zm-6.13,0A2.36,2.36,0,1,0,7.55,5.18,2.35,2.35,0,0,0,5.18,7.53Z"/><path class="cls-1" d="M11.59,4a.51.51,0,0,1,0-1,.51.51,0,0,1,0,1Z"/></g></g></svg>