<svg xmlns="http://www.w3.org/2000/svg" viewBox="0 0 16.75 17.98"><defs><style>.cls-1{fill:#ffb600;}</style></defs><title>Asset 2</title><g id="Layer_2" data-name="Layer 2"><g id="Layer_1-2" data-name="Layer 1"><path class="cls-1" d="M14.88,12.51c-1.09-.93-2.19-1.49-3.26-.56l-.64.56c-.47.4-1.34,2.31-4.71-1.57S4.9,6.47,5.37,6.07L6,5.5c1.07-.93.66-2.09-.11-3.3l-.46-.73C4.67.27,3.83-.52,2.76.41l-.58.5A5.47,5.47,0,0,0,.07,4.5C-.32,7.06.9,10,3.69,13.19S9.2,18,11.79,18a5.44,5.44,0,0,0,3.84-1.6l.59-.5c1.06-.93.4-1.87-.69-2.8Z"/></g></g></svg>