<svg xmlns="http://www.w3.org/2000/svg" viewBox="0 0 14.93 14.93"><defs><style>.cls-1{fill:#fff;fill-rule:evenodd;}</style></defs><title>Asset 18</title><g id="Layer_2" data-name="Layer 2"><g id="Layer_1-2" data-name="Layer 1"><path class="cls-1" d="M0,13.41V1.52l0-.1A1.75,1.75,0,0,1,1.72,0H13.2a1.73,1.73,0,0,1,1.72,1.72q0,5.75,0,11.48a1.73,1.73,0,0,1-1.72,1.72H1.72a1.7,1.7,0,0,1-1.37-.69A2.22,2.22,0,0,1,0,13.41ZM13.76,7.46V1.84a.59.59,0,0,0-.67-.67H1.84a.59.59,0,0,0-.67.67V13.09a.59.59,0,0,0,.67.67H13.09a.6.6,0,0,0,.67-.67Z"/><path class="cls-1" d="M7.92,6.58a2.34,2.34,0,0,1,2.29-.93,3.4,3.4,0,0,1,.89.21,1.79,1.79,0,0,1,1.05,1.36,5.77,5.77,0,0,1,.14,1.18c0,1.28,0,2.56,0,3.84v.08h-2V8.9a3.36,3.36,0,0,0-.06-.63A1,1,0,0,0,9,7.39a1.1,1.1,0,0,0-1,1,4.14,4.14,0,0,0-.06.7c0,1,0,2,0,3.06v.17H6V5.75h2Z"/><path class="cls-1" d="M4.65,12.32h-2V5.76h2Z"/><path class="cls-1" d="M2.48,3.65a1.2,1.2,0,1,1,1.2,1.19A1.19,1.19,0,0,1,2.48,3.65Z"/></g></g></svg>