<svg xmlns="http://www.w3.org/2000/svg" viewBox="0 0 10.59 18.7"><defs><style>.cls-1{fill:#ffb600;}</style></defs><title>Asset 1</title><g id="Layer_2" data-name="Layer 2"><g id="Layer_1-2" data-name="Layer 1"><path class="cls-1" d="M9.23,0H1.36A1.36,1.36,0,0,0,0,1.36v16A1.36,1.36,0,0,0,1.36,18.7H9.23a1.36,1.36,0,0,0,1.36-1.36v-16A1.36,1.36,0,0,0,9.23,0ZM3.35.83H7.24c.1,0,.18.14.18.32s-.08.33-.18.33H3.35c-.1,0-.17-.14-.17-.33s.07-.32.17-.32ZM5.3,17.35a.87.87,0,1,1,0-1.74.87.87,0,0,1,0,1.74Zm4.27-3H1V2.3H9.57Z"/></g></g></svg>