<svg xmlns="http://www.w3.org/2000/svg" viewBox="0 0 14.79 14.79"><defs><style>.cls-1{fill:#fff;fill-rule:evenodd;}</style></defs><title>Asset 21</title><g id="Layer_2" data-name="Layer 2"><g id="Layer_1-2" data-name="Layer 1"><path class="cls-1" d="M13.29,14.79H1.44c0-.06-.09,0-.13-.06A1.74,1.74,0,0,1,.08,13.58.53.53,0,0,0,0,13.34V1.44c.05,0,0-.08.05-.12A1.73,1.73,0,0,1,1,.17c.16-.08.33-.1.48-.17H13.29s0,0,0,0a1.67,1.67,0,0,1,1.33,1c.06.14.1.3.15.44V13.34c-.06,0,0,.09-.06.14a1.71,1.71,0,0,1-1,1.17C13.58,14.72,13.42,14.73,13.29,14.79ZM11.84,7.13c-.09.57-.19,1.13-.28,1.69,0,.09,0,.11-.12.11H9.88c-.09,0-.12,0-.12.12v4.47c0,.1,0,.12.12.12H13a.57.57,0,0,0,.61-.61V1.76a.57.57,0,0,0-.61-.6q-5.62,0-11.26,0a.57.57,0,0,0-.6.6V13a.57.57,0,0,0,.6.61H7.85c.1,0,.12,0,.12-.11V9c0-.09,0-.12-.11-.12H6.35c-.09,0-.11,0-.11-.12V7.25c0-.09,0-.12.11-.12H7.84C8,7.14,8,7.11,8,7A12,12,0,0,1,8,5.53a2.65,2.65,0,0,1,2.26-2.27c.49,0,1,0,1.47,0,.1,0,.08,0,.08.11V4.92c0,.08,0,.11-.1.11-.37,0-.74,0-1.1,0a.84.84,0,0,0-.85.84V7c0,.07,0,.11.1.1h2Z"/></g></g></svg>