<svg xmlns="http://www.w3.org/2000/svg" viewBox="0 0 10.45 12.84"><defs><style>.cls-1{fill:#fff;fill-rule:evenodd;}</style></defs><title>Asset 3</title><g id="Layer_2" data-name="Layer 2"><g id="Layer_1-2" data-name="Layer 1"><path class="cls-1" d="M2.39,12.84a1.17,1.17,0,0,1-.05-.11,8,8,0,0,1-.09-2.59c.09-.55.25-1.08.38-1.62.2-.79.39-1.58.59-2.37A.41.41,0,0,0,3.2,6a2.59,2.59,0,0,1,0-2.08A1.4,1.4,0,0,1,4.42,3,1,1,0,0,1,5.51,4a3.26,3.26,0,0,1-.17,1L4.86,6.56A1.16,1.16,0,0,0,6.08,8.1a2.19,2.19,0,0,0,1.69-.88,3.82,3.82,0,0,0,.82-2.1,3.78,3.78,0,0,0-.28-1.91A2.87,2.87,0,0,0,6.24,1.49a4.19,4.19,0,0,0-2.66.19A3.39,3.39,0,0,0,1.5,4.78a2.6,2.6,0,0,0,.59,1.71.3.3,0,0,1,.08.27L2,7.57c-.06.22-.13.24-.33.14A2.51,2.51,0,0,1,.55,6.65a4.08,4.08,0,0,1,0-4.16A4.57,4.57,0,0,1,3.5.25,6.25,6.25,0,0,1,4.85,0L5,0h.8l.11,0A5.25,5.25,0,0,1,8.57,1a4.21,4.21,0,0,1,1.84,3A5.12,5.12,0,0,1,10,6.78,4.06,4.06,0,0,1,6.81,9.29a2.49,2.49,0,0,1-2.48-.81c-.1.37-.22.74-.3,1.11a8.9,8.9,0,0,1-1.56,3.25Z"></path></g></g></svg>