<svg xmlns="http://www.w3.org/2000/svg" viewBox="0 0 15.63 11.31"><defs><style>.cls-1{fill:#fff;fill-rule:evenodd;}</style></defs><title>Asset 5</title><g id="Layer_2" data-name="Layer 2"><g id="Layer_1-2" data-name="Layer 1"><path class="cls-1" d="M0,6.44V4.86l0-.35C.1,3.79.14,3.07.25,2.36A2.42,2.42,0,0,1,2.33.26C2.86.18,3.4.13,3.94.1,5.78,0,7.62,0,9.47,0a32.84,32.84,0,0,1,3.71.23,2.39,2.39,0,0,1,2.18,2c.11.54.15,1.1.21,1.65,0,.29,0,.58.06.87V6.44l0,.35c-.07.72-.11,1.44-.22,2.15a2.35,2.35,0,0,1-2.17,2.11c-1,.11-2.06.17-3.09.21q-2.7.11-5.4,0c-.82,0-1.64-.11-2.45-.21a2.32,2.32,0,0,1-2-1.83C.19,8.59.14,8,.07,7.35,0,7.05,0,6.75,0,6.44ZM8.31,1.21c-2.16,0-3.79,0-5.41.2a3,3,0,0,0-.61.11,1.21,1.21,0,0,0-.85,1.11c-.08.75-.16,1.51-.2,2.26a18.5,18.5,0,0,0,.2,3.79A1.19,1.19,0,0,0,2.6,9.83C3.29,9.92,4,10,4.68,10c1.84.08,3.69.1,5.54,0,.92,0,1.83-.1,2.75-.18a1.23,1.23,0,0,0,1.22-1.15c.06-.31.1-.63.13-1a24.55,24.55,0,0,0,.06-3.43,10.61,10.61,0,0,0-.24-1.95,1.12,1.12,0,0,0-.9-.88,9.44,9.44,0,0,0-1.19-.15Z"></path><path class="cls-1" d="M5.81,8.86V2.44l5.55,3.21ZM7,4.56V6.74L8.92,5.65Z"></path></g></g></svg>